<?xml version="1.0" encoding="iso-8859-1"?>
<!-- Uploaded to: SVG Repo, www.svgrepo.com, Generator: SVG Repo Mixer Tools -->
<svg version="1.1" id="Layer_1" xmlns="http://www.w3.org/2000/svg" xmlns:xlink="http://www.w3.org/1999/xlink" 
	 viewBox="0 0 512 512" xml:space="preserve">
<path style="fill:#D84C4C;" d="M397.174,424.058H114.827c-8.442,0-15.66-6.073-17.105-14.39l-13.784-79.371
	c-2.086-12.005,7.157-22.99,19.341-22.99h305.442c12.186,0,21.427,10.985,19.341,22.99l-13.785,79.371
	C412.834,417.986,405.615,424.058,397.174,424.058z"/>
<g>
	<path style="fill:#B23F3F;" d="M90.142,365.682l7.639,43.985c1.445,8.318,8.662,14.39,17.105,14.39h282.345
		c8.441,0,15.66-6.073,17.105-14.39l7.639-43.985H90.142z"/>
	<path style="fill:#B23F3F;" d="M409.342,311.969H99.302l33.723-108.111c3.312-10.663,13.178-17.929,24.344-17.929h194.212
		c11.166,0,21.032,7.266,24.344,17.929L409.342,311.969z"/>
</g>
<g>
	<circle style="fill:#D3EFFD;" cx="152.708" cy="365.68" r="31.374"/>
	<circle style="fill:#D3EFFD;" cx="359.293" cy="365.68" r="31.374"/>
</g>
<g>
	<rect x="214.422" y="348.677" style="fill:#5D5D5D;" width="82.985" height="34.001"/>
	<rect x="108.96" y="424.058" style="fill:#5D5D5D;" width="291.029" height="21.203"/>
</g>
<path style="fill:#D84C4C;" d="M378.691,214.455l-3.292-10.597c-3.312-10.663-13.178-17.929-24.343-17.929H156.844
	c-11.166,0-21.032,7.266-24.343,17.929l-3.243,10.44C203.807,214.277,315.146,214.384,378.691,214.455z"/>
<path style="fill:#77757E;" d="M345.994,11.256c-25.037,0-46.702,14.388-57.214,35.339c-1.001-0.106-2.017-0.163-3.045-0.163H234.1
	L219.757,56.57l-17.718-10.139L183.477,56.57l-15.188-10.139L155.352,56.57l-13.114-10.139c-15.848,0-28.814,12.966-28.814,28.814
	l0,0c0,15.848,12.966,28.814,28.814,28.814h143.496c1.028,0,2.044-0.057,3.045-0.163c10.513,20.951,32.177,35.339,57.214,35.339
	c35.341,0,63.99-28.65,63.99-63.99C409.984,39.905,381.335,11.256,345.994,11.256z M362.301,90.273
	c-9.319,0-16.875-7.555-16.875-16.875s7.555-16.875,16.875-16.875s16.875,7.555,16.875,16.875
	C379.175,82.719,371.62,90.273,362.301,90.273z"/>
<polygon style="fill:#D3EFFD;" points="149.584,214.455 125.448,299.732 382.501,299.732 358.365,214.455 "/>
<g style="opacity:0.43;">
	<polygon style="fill:#FFFFFF;" points="228.423,214.455 204.287,299.732 278.846,299.732 305.403,214.455 	"/>
</g>
<g>
	<path style="fill:#FFFFFF;" d="M166.821,337.545l-42.278,42.279c2.983,5.754,7.692,10.463,13.447,13.447l42.278-42.278
		C177.284,345.238,172.575,340.528,166.821,337.545z"/>
	<path style="fill:#FFFFFF;" d="M373.706,337.82l-42.278,42.279c2.983,5.754,7.692,10.463,13.447,13.447l42.278-42.278
		C384.169,345.513,379.459,340.802,373.706,337.82z"/>
</g>
<g>
	<path style="fill:#77757E;" d="M166.532,504.396h-25.237c-7.035,0-12.738-5.703-12.738-12.738v-46.397h50.713v46.397
		C179.27,498.693,173.567,504.396,166.532,504.396z"/>
	<path style="fill:#77757E;" d="M365.891,504.396h-25.237c-7.035,0-12.738-5.703-12.738-12.738v-46.397h50.713v46.397
		C378.629,498.693,372.926,504.396,365.891,504.396z"/>
</g>
<path style="fill:#5D5D5D;" d="M362.301,90.273c-8.695,0-15.848-6.578-16.768-15.028H113.425c0,15.848,12.966,28.814,28.814,28.814
	h143.496c1.028,0,2.044-0.057,3.045-0.163c10.513,20.951,32.177,35.339,57.214,35.339c35.341,0,63.99-28.65,63.99-63.99H379.07
	C378.149,83.695,370.996,90.273,362.301,90.273z"/>
<path d="M152.712,326.705c-21.492,0-38.977,17.485-38.977,38.977c0,21.492,17.485,38.977,38.977,38.977s38.977-17.485,38.977-38.977
	C191.689,344.19,174.204,326.705,152.712,326.705z M152.712,389.452c-13.107,0-23.769-10.663-23.769-23.769
	c0-13.106,10.663-23.769,23.769-23.769s23.769,10.663,23.769,23.769C176.481,378.789,165.818,389.452,152.712,389.452z"/>
<path d="M359.289,326.705c-21.492,0-38.977,17.485-38.977,38.977c0,21.492,17.485,38.977,38.977,38.977
	c21.492,0,38.977-17.485,38.977-38.977C398.265,344.19,380.781,326.705,359.289,326.705z M359.289,389.452
	c-13.107,0-23.769-10.663-23.769-23.769c0-13.106,10.663-23.769,23.769-23.769c13.106,0,23.769,10.663,23.769,23.769
	C383.058,378.789,372.396,389.452,359.289,389.452z"/>
<path d="M429.562,309.404c-4.078-4.846-9.646-8.059-15.755-9.216l-30.623-98.585c-4.324-13.923-17.025-23.278-31.605-23.278H157.368
	c-14.58,0-27.281,9.355-31.605,23.278l-3.302,10.631c-0.002,0.005-0.004,0.01-0.006,0.015c-0.002,0.006-0.003,0.011-0.004,0.017
	l-27.572,88.766c-4.795,1.552-9.114,4.417-12.44,8.371c-5.187,6.166-7.372,14.256-5.993,22.194l13.785,79.37
	c1.237,7.125,5.406,13.072,11.129,16.738v17.554c0,4.2,3.404,7.604,7.604,7.604h11.99v38.794c0,11.216,9.125,20.341,20.341,20.341
	h25.238c11.216,0,20.341-9.125,20.341-20.341v-38.794h133.437v38.794c0,11.216,9.125,20.341,20.341,20.341h25.238
	c11.216,0,20.341-9.125,20.341-20.341v-38.794h13.755c4.2,0,7.604-3.404,7.604-7.604v-15.874
	c7.279-3.337,12.73-10.077,14.178-18.418l13.785-79.37C436.933,323.659,434.749,315.569,429.562,309.404z M157.368,193.533H351.58
	c7.88,0,14.745,5.056,17.083,12.581l0.241,0.777c-19.877-0.036-67.264-0.119-114.667-0.165c-36.124-0.035-64.916-0.044-85.572-0.022
	c-11.683,0.011-21.424,0.031-28.247,0.065c-0.115,0-0.222,0.001-0.335,0.002l0.204-0.656
	C142.623,198.589,149.488,193.533,157.368,193.533z M135.35,222.004c29.225-0.231,174.158-0.019,238.28,0.102l24.102,77.595H111.217
	L135.35,222.004z M171.666,491.659c0,2.831-2.302,5.133-5.133,5.133h-25.238c-2.831,0-5.133-2.302-5.133-5.133v-38.794h35.505
	v38.794H171.666z M371.025,491.659c0,2.831-2.302,5.133-5.133,5.133h-25.238c-2.831,0-5.133-2.302-5.133-5.133v-38.794h35.505
	v38.794H371.025z M392.384,437.657h-13.755h-50.713H179.27h-50.713h-11.99v-5.995h275.817L392.384,437.657L392.384,437.657z
	 M420.571,328.996l-13.785,79.37c-0.814,4.686-4.856,8.088-9.612,8.088H114.827c-4.756,0-8.799-3.401-9.612-8.088l-13.785-79.37
	c-0.609-3.506,0.356-7.078,2.646-9.802c2.29-2.723,5.645-4.285,9.204-4.285h304.776h0.665c3.559,0,6.913,1.561,9.203,4.285
	C420.216,321.917,421.18,325.49,420.571,328.996z"/>
<path d="M297.409,341.077h-82.986c-4.2,0-7.604,3.404-7.604,7.604v34.001c0,4.2,3.404,7.604,7.604,7.604h82.986
	c4.2,0,7.604-3.404,7.604-7.604v-34.001C305.013,344.481,301.609,341.077,297.409,341.077z M289.805,375.078h-67.778v-18.793h67.778
	V375.078z"/>
<path d="M145.891,108.012h142.118c12.864,21.819,36.05,35.175,61.637,35.175c39.478,0,71.594-32.117,71.594-71.593
	C421.24,32.117,389.122,0,349.646,0c-25.587,0-48.773,13.356-61.637,35.175h-50.258c-1.572,0-3.105,0.487-4.389,1.395l-10.384,7.34
	l-13.511-7.732c-2.292-1.314-5.104-1.34-7.421-0.073l-14.522,7.932l-11.36-7.584c-2.733-1.824-6.327-1.685-8.912,0.34l-8.278,6.488
	l-8.431-6.519c-1.331-1.03-2.968-1.588-4.651-1.588c-20.082,0-36.418,16.337-36.418,36.419S125.809,108.012,145.891,108.012z
	 M143.472,50.52l10.882,8.414c2.752,2.129,6.601,2.117,9.341-0.03l8.604-6.742l10.609,7.082c2.352,1.57,5.384,1.704,7.868,0.349
	l14.83-8.1l14.028,8.027c2.565,1.467,5.752,1.316,8.166-0.391l12.369-8.744h49.22c0.73,0,1.485,0.041,2.245,0.121
	c3.138,0.333,6.175-1.32,7.596-4.152c9.64-19.211,28.959-31.145,50.418-31.145c31.091,0,56.386,25.295,56.386,56.386
	s-25.295,56.385-56.386,56.385c-21.459,0-40.779-11.934-50.418-31.145c-1.299-2.59-3.942-4.194-6.793-4.194
	c-0.267,0-0.534,0.014-0.803,0.043c-0.759,0.08-1.515,0.121-2.245,0.121H145.891c-11.695,0-21.21-9.515-21.21-21.21
	C124.681,60.717,132.912,51.725,143.472,50.52z"/>
<path d="M365.954,94.226c13.498,0,24.478-10.981,24.478-24.479s-10.981-24.479-24.478-24.479c-13.497,0-24.479,10.981-24.479,24.479
	S352.456,94.226,365.954,94.226z M365.954,60.477c5.111,0,9.27,4.159,9.27,9.271s-4.159,9.271-9.27,9.271
	c-5.112,0-9.271-4.159-9.271-9.271C356.683,64.636,360.842,60.477,365.954,60.477z"/>
</svg>