<svg aria-hidden="true" style="position: absolute; width: 0; height: 0; overflow: hidden;" version="1.1"
  xmlns="http://www.w3.org/2000/svg"
  xmlns:xlink="http://www.w3.org/1999/xlink">
  <defs>

<symbol id="icon-x" viewBox="0 0 32 32">
<path stroke-linejoin="round" stroke-linecap="round" stroke-miterlimit="4" stroke-width="2.4" d="M24 8l-16 16"></path>
<path stroke-linejoin="round" stroke-linecap="round" stroke-miterlimit="4" stroke-width="2.4" d="M8 8l16 16"></path>
</symbol>


<symbol id="icon-active" viewBox="0 0 32 32">
<path fill="#3470ff" style="fill: var(--color1, #3470ff); stroke: var(--color1, #3470ff)" stroke="#3470ff" stroke-linejoin="round" stroke-linecap="round" stroke-miterlimit="4" stroke-width="1.7778" d="M27.787 6.147c-0.681-0.681-1.49-1.222-2.38-1.591s-1.844-0.559-2.807-0.559c-0.963 0-1.917 0.19-2.807 0.559s-1.698 0.909-2.38 1.591l-1.413 1.413-1.413-1.413c-1.376-1.376-3.241-2.148-5.187-2.148s-3.811 0.773-5.187 2.148c-1.376 1.376-2.148 3.241-2.148 5.187s0.773 3.811 2.148 5.187l11.787 11.787 11.787-11.787c0.681-0.681 1.222-1.49 1.591-2.38s0.559-1.844 0.559-2.807c0-0.963-0.19-1.917-0.559-2.807s-0.909-1.699-1.591-2.38z"></path>
</symbol>

<symbol id="icon-normal" viewBox="0 0 32 32">
<path fill="none" stroke="#fff" style="stroke: var(--color2, #fff)" stroke-linejoin="round" stroke-linecap="round" stroke-miterlimit="4" stroke-width="2.6667" d="M27.787 6.147c-0.681-0.681-1.49-1.222-2.38-1.591s-1.844-0.559-2.807-0.559c-0.963 0-1.917 0.19-2.807 0.559s-1.698 0.909-2.38 1.591l-1.413 1.413-1.413-1.413c-1.376-1.376-3.241-2.148-5.187-2.148s-3.811 0.773-5.187 2.148c-1.376 1.376-2.148 3.241-2.148 5.187s0.773 3.811 2.148 5.187l11.787 11.787 11.787-11.787c0.681-0.681 1.222-1.49 1.591-2.38s0.559-1.844 0.559-2.807c0-0.963-0.19-1.917-0.559-2.807s-0.909-1.699-1.591-2.38z"></path>
</symbol>
<symbol id="icon-up" viewBox="0 0 32 32">
<path stroke-linejoin="round" stroke-linecap="round" stroke-miterlimit="4" stroke-width="3.2" d="M8 20l8-8 8 8"></path>
</symbol>

<symbol id="icon-down" viewBox="0 0 24 24">
<path d="M5.293 9.707l6 6c0.391 0.391 1.024 0.391 1.414 0l6-6c0.391-0.391 0.391-1.024 0-1.414s-1.024-0.391-1.414 0l-5.293 5.293-5.293-5.293c-0.391-0.391-1.024-0.391-1.414 0s-0.391 1.024 0 1.414z"></path>
</symbol>

<symbol id="icon-rent" viewBox="0 0 32 32">
<path fill="#d84c4c" style="fill: var(--color1, #d84c4c)" d="M24.823 26.504h-17.647c-0.528 0-0.979-0.38-1.069-0.899l-0.862-4.961c-0.13-0.75 0.447-1.437 1.209-1.437h19.090c0.762 0 1.339 0.687 1.209 1.437l-0.862 4.961c-0.090 0.52-0.541 0.899-1.069 0.899z"></path>
<path fill="#b23f3f" style="fill: var(--color2, #b23f3f)" d="M5.634 22.855l0.477 2.749c0.090 0.52 0.541 0.899 1.069 0.899h17.647c0.528 0 0.979-0.38 1.069-0.899l0.477-2.749h-20.74z"></path>
<path fill="#b23f3f" style="fill: var(--color2, #b23f3f)" d="M25.584 19.498h-19.378l2.108-6.757c0.207-0.666 0.824-1.121 1.521-1.121h12.138c0.698 0 1.314 0.454 1.521 1.121l2.089 6.757z"></path>
<path fill="#d3effd" style="fill: var(--color3, #d3effd)" d="M11.505 22.855c0 1.083-0.878 1.961-1.961 1.961s-1.961-0.878-1.961-1.961c0-1.083 0.878-1.961 1.961-1.961s1.961 0.878 1.961 1.961z"></path>
<path fill="#d3effd" style="fill: var(--color3, #d3effd)" d="M24.417 22.855c0 1.083-0.878 1.961-1.961 1.961s-1.961-0.878-1.961-1.961c0-1.083 0.878-1.961 1.961-1.961s1.961 0.878 1.961 1.961z"></path>
<path fill="#5d5d5d" style="fill: var(--color4, #5d5d5d)" d="M13.401 21.792h5.187v2.125h-5.187v-2.125z"></path>
<path fill="#5d5d5d" style="fill: var(--color4, #5d5d5d)" d="M6.81 26.504h18.189v1.325h-18.189v-1.325z"></path>
<path fill="#d84c4c" style="fill: var(--color1, #d84c4c)" d="M23.668 13.403l-0.206-0.662c-0.207-0.666-0.824-1.121-1.521-1.121h-12.138c-0.698 0-1.315 0.454-1.521 1.121l-0.203 0.652c4.659-0.001 11.618 0.005 15.59 0.010z"></path>
<path fill="#77757e" style="fill: var(--color5, #77757e)" d="M21.625 0.704c-1.565 0-2.919 0.899-3.576 2.209-0.063-0.007-0.126-0.010-0.19-0.010h-3.227l-0.896 0.634-1.107-0.634-1.16 0.634-0.949-0.634-0.809 0.634-0.82-0.634c-0.99 0-1.801 0.81-1.801 1.801v0c0 0.99 0.81 1.801 1.801 1.801h8.969c0.064 0 0.128-0.004 0.19-0.010 0.657 1.309 2.011 2.209 3.576 2.209 2.209 0 3.999-1.791 3.999-3.999s-1.791-3.999-3.999-3.999zM22.644 5.642c-0.582 0-1.055-0.472-1.055-1.055s0.472-1.055 1.055-1.055 1.055 0.472 1.055 1.055c-0 0.583-0.472 1.055-1.055 1.055z"></path>
<path fill="#d3effd" style="fill: var(--color3, #d3effd)" d="M9.349 13.403l-1.508 5.33h16.066l-1.509-5.33z"></path>
<path fill="#fff" style="fill: var(--color6, #fff)" opacity="0.43" d="M14.276 13.403l-1.508 5.33h4.66l1.66-5.33z"></path>
<path fill="#fff" style="fill: var(--color6, #fff)" d="M10.426 21.097l-2.642 2.642c0.186 0.36 0.481 0.654 0.84 0.84l2.642-2.642c-0.187-0.36-0.481-0.654-0.84-0.84z"></path>
<path fill="#fff" style="fill: var(--color6, #fff)" d="M23.357 21.114l-2.642 2.642c0.186 0.36 0.481 0.654 0.84 0.84l2.642-2.642c-0.186-0.36-0.481-0.654-0.84-0.84z"></path>
<path fill="#77757e" style="fill: var(--color5, #77757e)" d="M10.408 31.525h-1.577c-0.44 0-0.796-0.356-0.796-0.796v-2.9h3.17v2.9c0 0.44-0.356 0.796-0.796 0.796z"></path>
<path fill="#77757e" style="fill: var(--color5, #77757e)" d="M22.868 31.525h-1.577c-0.44 0-0.796-0.356-0.796-0.796v-2.9h3.17v2.9c0 0.44-0.356 0.796-0.796 0.796z"></path>
<path fill="#5d5d5d" style="fill: var(--color4, #5d5d5d)" d="M22.644 5.642c-0.543 0-0.991-0.411-1.048-0.939h-14.507c0 0.99 0.81 1.801 1.801 1.801h8.969c0.064 0 0.128-0.004 0.19-0.010 0.657 1.309 2.011 2.209 3.576 2.209 2.209 0 3.999-1.791 3.999-3.999h-1.932c-0.058 0.528-0.505 0.939-1.048 0.939z"></path>
<path fill="#000" style="fill: var(--color7, #000)" d="M9.544 20.419c-1.343 0-2.436 1.093-2.436 2.436s1.093 2.436 2.436 2.436 2.436-1.093 2.436-2.436c0-1.343-1.093-2.436-2.436-2.436zM9.544 24.341c-0.819 0-1.486-0.666-1.486-1.486s0.666-1.486 1.486-1.486 1.486 0.666 1.486 1.486c0 0.819-0.666 1.486-1.486 1.486z"></path>
<path fill="#000" style="fill: var(--color7, #000)" d="M22.456 20.419c-1.343 0-2.436 1.093-2.436 2.436s1.093 2.436 2.436 2.436c1.343 0 2.436-1.093 2.436-2.436s-1.093-2.436-2.436-2.436zM22.456 24.341c-0.819 0-1.486-0.666-1.486-1.486s0.666-1.486 1.486-1.486c0.819 0 1.486 0.666 1.486 1.486s-0.666 1.486-1.486 1.486z"></path>
<path fill="#000" style="fill: var(--color7, #000)" d="M26.848 19.338c-0.255-0.303-0.603-0.504-0.985-0.576l-1.914-6.162c-0.27-0.87-1.064-1.455-1.975-1.455h-12.138c-0.911 0-1.705 0.585-1.975 1.455l-0.206 0.664c-0 0-0 0.001-0 0.001s-0 0.001-0 0.001l-1.723 5.548c-0.3 0.097-0.57 0.276-0.777 0.523-0.324 0.385-0.461 0.891-0.375 1.387l0.862 4.961c0.077 0.445 0.338 0.817 0.696 1.046v1.097c0 0.262 0.213 0.475 0.475 0.475h0.749v2.425c0 0.701 0.57 1.271 1.271 1.271h1.577c0.701 0 1.271-0.57 1.271-1.271v-2.425h8.34v2.425c0 0.701 0.57 1.271 1.271 1.271h1.577c0.701 0 1.271-0.57 1.271-1.271v-2.425h0.86c0.262 0 0.475-0.213 0.475-0.475v-0.992c0.455-0.209 0.796-0.63 0.886-1.151l0.862-4.961c0.086-0.496-0.050-1.002-0.374-1.387zM9.835 12.096h12.138c0.492 0 0.922 0.316 1.068 0.786l0.015 0.049c-1.242-0.002-4.204-0.007-7.167-0.010-2.258-0.002-4.057-0.003-5.348-0.001-0.73 0.001-1.339 0.002-1.765 0.004-0.007 0-0.014 0-0.021 0l0.013-0.041c0.146-0.47 0.575-0.786 1.068-0.786zM8.459 13.875c1.827-0.014 10.885-0.001 14.893 0.006l1.506 4.85h-17.907l1.508-4.856zM10.729 30.729c0 0.177-0.144 0.321-0.321 0.321h-1.577c-0.177 0-0.321-0.144-0.321-0.321v-2.425h2.219v2.425h-0zM23.189 30.729c0 0.177-0.144 0.321-0.321 0.321h-1.577c-0.177 0-0.321-0.144-0.321-0.321v-2.425h2.219v2.425h-0zM24.524 27.354h-17.239v-0.375h17.239v0.375zM26.286 20.562l-0.862 4.961c-0.051 0.293-0.303 0.506-0.601 0.506h-17.647c-0.297 0-0.55-0.213-0.601-0.506l-0.862-4.961c-0.038-0.219 0.022-0.442 0.165-0.613s0.353-0.268 0.575-0.268h19.090c0.222 0 0.432 0.098 0.575 0.268s0.203 0.393 0.165 0.613z"></path>
<path fill="#000" style="fill: var(--color7, #000)" d="M18.588 21.317h-5.187c-0.262 0-0.475 0.213-0.475 0.475v2.125c0 0.262 0.213 0.475 0.475 0.475h5.187c0.262 0 0.475-0.213 0.475-0.475v-2.125c0-0.262-0.213-0.475-0.475-0.475zM18.113 23.442h-4.236v-1.175h4.236v1.175z"></path>
<path fill="#000" style="fill: var(--color7, #000)" d="M9.118 6.751h8.882c0.804 1.364 2.253 2.198 3.852 2.198 2.467 0 4.475-2.007 4.475-4.475s-2.007-4.475-4.475-4.475c-1.599 0-3.048 0.835-3.852 2.198h-3.141c-0.098 0-0.194 0.030-0.274 0.087l-0.649 0.459-0.844-0.483c-0.143-0.082-0.319-0.084-0.464-0.005l-0.908 0.496-0.71-0.474c-0.171-0.114-0.395-0.105-0.557 0.021l-0.517 0.405-0.527-0.407c-0.083-0.064-0.185-0.099-0.291-0.099-1.255 0-2.276 1.021-2.276 2.276s1.021 2.276 2.276 2.276zM8.967 3.158l0.68 0.526c0.172 0.133 0.413 0.132 0.584-0.002l0.538-0.421 0.663 0.443c0.147 0.098 0.336 0.107 0.492 0.022l0.927-0.506 0.877 0.502c0.16 0.092 0.36 0.082 0.51-0.024l0.773-0.546h3.076c0.046 0 0.093 0.003 0.14 0.008 0.196 0.021 0.386-0.083 0.475-0.26 0.602-1.201 1.81-1.947 3.151-1.947 1.943 0 3.524 1.581 3.524 3.524s-1.581 3.524-3.524 3.524c-1.341 0-2.549-0.746-3.151-1.947-0.081-0.162-0.246-0.262-0.425-0.262-0.017 0-0.033 0.001-0.050 0.003-0.047 0.005-0.095 0.008-0.14 0.008h-8.969c-0.731 0-1.326-0.595-1.326-1.326 0-0.68 0.514-1.242 1.174-1.317z"></path>
<path fill="#000" style="fill: var(--color7, #000)" d="M22.872 5.889c0.844 0 1.53-0.686 1.53-1.53s-0.686-1.53-1.53-1.53c-0.844 0-1.53 0.686-1.53 1.53s0.686 1.53 1.53 1.53zM22.872 3.78c0.319 0 0.579 0.26 0.579 0.579s-0.26 0.579-0.579 0.579c-0.32 0-0.579-0.26-0.579-0.579s0.26-0.579 0.579-0.579z"></path>
</symbol>

 <symbol id="burger-menu" viewBox="0 0 32 32">
      <path fill="none" style="stroke: var(--color1)" stroke-linejoin="round" stroke-linecap="round" stroke-miterlimit="4" stroke-width="3" d="M4 16h16M4 8h24M4 24h24"></path>
    </symbol>
</symbol>

</symbol>
  </defs>
</svg>